<?xml version="1.0" encoding="UTF-8"?>
<svg id="Layer_1" xmlns="http://www.w3.org/2000/svg" version="1.1" viewBox="0 0 2228 579">
  <!-- Generator: Adobe Illustrator 29.8.2, SVG Export Plug-In . SVG Version: 2.1.1 Build 3)  -->
  <defs>
    <style>
      .st0 {
        fill: #1c1c1c;
      }

      .st1 {
        fill: #28ceab;
      }
    </style>
  </defs>
  <g>
    <polygon class="st0" points="1478.43 173.1 1418.11 251.43 1540.52 251.43 1540.52 474.26 1633.7 474.26 1633.7 251.43 1712.79 251.43 1773.11 173.1 1478.43 173.1"/>
    <path class="st0" d="M1962.98,168.15c-146.75,0-220.13,47.72-220.13,155.31s73.38,155.76,220.13,155.76,220.13-48.17,220.13-155.76-73.83-155.31-220.13-155.31ZM1835.59,323.46c0-64.82,33.76-76.98,127.39-76.98,43.13,0,73.53,2.6,93.8,11.71l-219.62,86.82c-1.06-6.45-1.58-13.6-1.58-21.55ZM1962.98,400.89c-37.94,0-66.05-2.07-86.07-8.85l212.68-84.09c.51,4.81.78,9.95.78,15.51,0,64.82-33.76,77.43-127.4,77.43Z"/>
    <path class="st0" d="M1213.3,396.83l-36.95-40.92h36.95v-.04h199.01l53.12-68.42h-252.13s-36.95-36.02-36.95-36.02h36.95s157.79,0,157.79,0l60.32-78.33h-521.54l20.77,34.14s-.04.05-.06.08l-189.52,266.94h110.29l157.11-222.83h74.53v145.16h-111.66l40.24,77.67h411.54l60.32-77.43h-270.14Z"/>
  </g>
  <g>
    <path class="st0" d="M268.53,102.99l161.87,229.58h110.42L351.08,65.33s-.04-.05-.06-.08l30.89-30.11c-44.15,9.04-84.24,32.84-113.38,67.85Z"/>
    <path class="st0" d="M495.66,476.85l-161.17-228.59h-110.42l189.73,267.25s.04.05.06.07l-28.5,27.78c42.86-9.32,81.74-32.59,110.29-66.51Z"/>
    <polygon class="st1" points="540.81 361.13 449.01 361.13 513.63 452.79 578.99 361.13 540.81 361.13"/>
    <polygon class="st1" points="315.88 219.7 250.61 127.13 184.59 219.7 224.07 219.7 315.88 219.7"/>
    <polygon class="st1" points="200.79 264.79 176.66 230.81 110.1 324.15 269.79 530.31 283.44 547.93 339.76 547.93 358.87 529.31 376.43 512.19 200.79 264.79"/>
    <polygon class="st1" points="495.09 49.38 480.91 31.07 427 31.07 406.02 51.52 388.45 68.64 564.1 316.05 587.57 349.11 654.53 255.21 495.09 49.38"/>
    <polygon class="st0" points="665.44 93.97 665.13 94.21 625.6 43.18 616.53 31.62 517.67 31.9 671.84 230.94 719.96 163.47 665.44 93.97"/>
    <polygon class="st0" points="92.79 348.43 44.89 415.59 99.73 485.5 99.76 485.48 103.46 490.26 148.69 547.93 200.7 547.93 247.22 547.8 92.79 348.43"/>
  </g>
</svg>